<?xml version="1.0" standalone="no"?>
<!DOCTYPE svg PUBLIC "-//W3C//DTD SVG 20010904//EN"
 "http://www.w3.org/TR/2001/REC-SVG-20010904/DTD/svg10.dtd">
<svg version="1.0" xmlns="http://www.w3.org/2000/svg"
 width="500.000000pt" height="500.000000pt" viewBox="0 0 500.000000 500.000000"
 preserveAspectRatio="xMidYMid meet">

<g transform="translate(0.000000,500.000000) scale(0.100000,-0.100000)"
fill="#000000" stroke="none">
<path d="M1627 3803 c-4 -3 -7 -395 -7 -870 l0 -863 253 0 252 0 410 410 c345
345 414 410 435 408 l25 -3 3 -407 2 -408 190 0 190 0 0 854 c0 470 -3 861 -6
870 -3 9 -13 16 -22 16 -9 0 -201 -184 -427 -410 -226 -225 -417 -410 -425
-410 -8 0 -200 185 -425 410 -225 226 -417 410 -426 410 -9 0 -19 -3 -22 -7z
m500 -995 c50 -50 83 -91 83 -103 0 -12 -32 -52 -79 -99 -61 -61 -83 -77 -102
-74 l-24 3 -3 165 c-1 90 0 170 2 177 11 28 44 9 123 -69z"/>
<path d="M2670 1780 l0 -120 25 0 c22 0 25 4 25 34 0 49 15 83 40 91 34 11 50
-12 50 -71 0 -51 1 -54 25 -54 24 0 25 2 25 65 0 52 -4 69 -20 85 -28 28 -66
25 -95 -6 l-25 -27 0 62 c0 58 -1 61 -25 61 l-25 0 0 -120z"/>
<path d="M1960 1775 l0 -115 25 0 c25 0 25 0 26 98 0 108 9 102 29 -21 l13
-77 47 0 48 0 18 95 c10 52 21 95 26 95 4 0 8 -43 8 -95 0 -95 0 -95 25 -95
l25 0 0 115 0 115 -53 0 -54 0 -12 -72 c-23 -132 -32 -141 -50 -45 -24 129
-17 117 -72 117 l-49 0 0 -115z"/>
<path d="M2543 1863 c-7 -2 -13 -11 -13 -19 0 -8 -9 -14 -20 -14 -15 0 -20 -7
-20 -25 0 -18 5 -25 20 -25 16 0 19 -8 22 -57 l3 -58 53 -3 c47 -3 52 -1 52
17 0 17 -6 21 -30 21 -28 0 -30 2 -30 39 0 36 3 40 28 43 19 2 27 9 27 23 0
14 -8 21 -27 23 -20 2 -28 9 -28 23 0 19 -12 23 -37 12z"/>
<path d="M2325 1818 c-21 -12 -35 -28 -35 -40 0 -12 38 -9 59 4 19 12 51 5 51
-10 0 -5 -18 -12 -40 -15 -49 -6 -70 -22 -70 -51 0 -31 19 -46 56 -46 23 0 38
8 52 25 24 31 29 31 28 3 -1 -18 5 -24 27 -26 22 -3 27 1 27 17 0 12 -4 21 -9
21 -5 0 -11 22 -15 50 -6 42 -11 52 -36 65 -34 18 -67 19 -95 3z m75 -92 c0
-14 -21 -26 -46 -26 -8 0 -14 6 -14 14 0 13 9 17 53 25 4 0 7 -5 7 -13z"/>
<path d="M2930 1823 c-19 -8 -30 -23 -30 -46 0 -13 16 -25 50 -40 28 -11 50
-25 50 -29 0 -12 -48 -10 -55 2 -3 6 -17 10 -31 10 -29 0 -31 -13 -4 -40 22
-22 88 -27 121 -10 21 12 26 52 7 67 -7 6 -30 16 -50 22 -21 7 -38 17 -38 22
0 12 37 12 45 -1 3 -5 17 -10 31 -10 29 0 31 13 4 40 -19 19 -67 25 -100 13z"/>
<path d="M3992 1518 c-17 -17 -15 -48 3 -48 9 0 18 7 22 15 5 14 8 14 29 0 13
-8 30 -15 38 -15 19 0 46 27 46 46 0 17 -37 19 -43 2 -3 -10 -9 -10 -26 0 -26
15 -54 15 -69 0z"/>
<path d="M1350 1390 l0 -120 24 0 c19 0 25 6 28 28 5 40 41 42 64 3 14 -23 26
-31 46 -31 l28 0 -26 42 -27 42 22 14 c13 9 21 25 21 43 0 24 -4 29 -25 29
-18 0 -25 -5 -25 -18 0 -13 -13 -24 -40 -35 l-40 -15 0 69 c0 67 -1 69 -25 69
l-25 0 0 -120z"/>
<path d="M1997 1504 c-4 -4 -7 -16 -7 -26 0 -13 7 -18 26 -18 21 0 25 4 22 22
-3 23 -27 35 -41 22z"/>
<path d="M3173 1495 c-49 -21 -66 -55 -61 -121 6 -69 28 -94 91 -101 39 -5 49
-2 71 20 16 17 26 37 26 56 0 16 4 32 9 35 5 4 7 -19 4 -54 -6 -60 -6 -60 21
-60 27 0 27 1 24 63 l-3 62 -67 3 c-63 3 -68 1 -68 -18 0 -15 6 -20 25 -20 29
0 32 -12 9 -34 -21 -21 -57 -20 -77 2 -22 24 -22 95 -1 116 23 23 81 21 96 -4
14 -23 58 -27 58 -6 0 22 -48 63 -81 70 -40 8 -38 8 -76 -9z"/>
<path d="M640 1385 l0 -115 25 0 c25 0 25 0 25 97 0 53 3 93 7 90 3 -4 14 -46
23 -95 l16 -87 46 -3 c53 -3 49 -8 69 106 7 40 16 75 21 78 4 3 8 -38 8 -90 0
-96 0 -96 25 -96 l25 0 0 116 0 115 -52 -3 -53 -3 -12 -70 c-25 -141 -33 -145
-52 -30 -18 109 -16 105 -72 105 l-49 0 0 -115z"/>
<path d="M2740 1492 c0 -4 11 -23 25 -42 30 -40 32 -55 7 -39 -48 30 -104 -28
-83 -84 18 -48 108 -73 174 -48 20 8 29 5 47 -14 18 -19 26 -22 40 -13 17 11
17 13 -2 39 -20 26 -20 29 -4 69 22 56 21 70 -8 70 -20 0 -25 -7 -31 -37 l-7
-38 -44 50 -45 50 56 3 c47 3 55 6 55 22 0 18 -7 20 -90 20 -49 0 -90 -4 -90
-8z m89 -128 c40 -33 39 -42 -5 -50 -60 -11 -113 27 -84 61 19 23 55 18 89
-11z"/>
<path d="M1823 1473 c-7 -2 -13 -11 -13 -19 0 -8 -9 -14 -20 -14 -15 0 -20 -7
-20 -25 0 -18 5 -25 20 -25 16 0 19 -8 22 -57 l3 -58 53 -3 c47 -3 52 -1 52
17 0 17 -6 21 -30 21 -28 0 -30 2 -30 40 0 36 3 40 25 40 20 0 25 5 25 25 0
20 -5 25 -25 25 -18 0 -25 5 -25 20 0 19 -12 24 -37 13z"/>
<path d="M3833 1460 c-3 -11 -14 -20 -24 -20 -14 0 -19 -7 -19 -25 0 -18 5
-25 20 -25 18 0 20 -7 20 -60 l0 -60 55 0 c48 0 55 3 55 19 0 15 -8 21 -32 23
-30 3 -33 6 -36 41 -3 35 -2 37 27 37 26 0 31 4 31 25 0 21 -5 25 -30 25 -23
0 -30 4 -30 20 0 12 -7 20 -16 20 -9 0 -18 -9 -21 -20z"/>
<path d="M1005 1428 c-21 -12 -35 -28 -35 -40 0 -12 38 -9 59 4 19 12 51 5 51
-10 0 -5 -18 -12 -40 -15 -49 -6 -70 -22 -70 -51 0 -31 19 -46 56 -46 23 0 38
8 52 25 24 31 29 31 28 3 -1 -18 5 -24 27 -26 22 -3 27 1 27 17 0 12 -4 21 -9
21 -5 0 -11 22 -15 50 -6 42 -11 52 -36 65 -34 18 -67 19 -95 3z m75 -92 c0
-14 -21 -26 -46 -26 -8 0 -14 6 -14 14 0 13 9 17 53 25 4 0 7 -5 7 -13z"/>
<path d="M1197 1433 c-4 -3 -7 -42 -7 -85 0 -77 0 -78 25 -78 24 0 25 2 25 66
l0 67 40 -7 c38 -6 40 -5 40 19 0 24 -3 25 -58 25 -32 0 -62 -3 -65 -7z"/>
<path d="M1595 1415 c-17 -16 -25 -35 -25 -60 0 -80 100 -116 158 -58 24 25
25 28 8 31 -10 2 -29 -1 -41 -8 -30 -16 -69 -9 -73 13 -3 15 5 17 57 17 55 0
61 2 61 20 0 34 -44 70 -85 70 -25 0 -44 -8 -60 -25z m93 -32 c2 -9 -8 -13
-32 -13 -34 0 -44 8 -29 24 11 11 56 2 61 -11z"/>
<path d="M1954 1425 c-8 -19 1 -30 24 -30 13 0 17 -9 17 -40 0 -34 -3 -40 -22
-43 -15 -2 -23 -10 -23 -23 0 -17 8 -19 70 -19 62 0 70 2 70 19 0 13 -8 21
-22 23 -20 3 -24 10 -28 63 l-5 60 -38 3 c-27 2 -39 -1 -43 -13z"/>
<path d="M2120 1355 c0 -84 0 -85 25 -85 23 0 25 4 25 45 0 32 6 51 20 65 41
41 70 18 70 -57 0 -50 1 -53 26 -53 26 0 26 1 22 64 -6 100 -59 138 -112 81
-13 -14 -26 -25 -28 -25 -3 0 -3 11 0 25 4 22 1 25 -22 25 l-26 0 0 -85z"/>
<path d="M2383 1430 c-21 -9 -43 -39 -43 -59 0 -24 33 -41 82 -41 59 0 57 -11
-4 -19 -65 -9 -62 -32 4 -29 42 2 53 0 53 -12 0 -11 -15 -16 -62 -18 -55 -3
-63 -6 -63 -22 0 -18 7 -20 64 -20 86 0 116 12 116 46 0 19 -7 28 -29 37 l-30
11 30 18 c20 12 29 26 29 43 0 16 6 25 15 25 10 0 15 10 15 26 0 23 -3 25 -22
19 -26 -7 -28 -8 -88 0 -25 2 -55 1 -67 -5z m88 -41 c29 -15 6 -39 -37 -39
-40 0 -54 18 -29 37 23 16 40 17 66 2z"/>
<path d="M3425 1415 c-28 -27 -32 -63 -10 -104 14 -29 39 -41 86 -41 27 0 79
34 79 51 0 13 -44 11 -57 -2 -16 -16 -67 -7 -71 14 -3 15 5 17 57 17 58 0 61
1 61 24 0 60 -99 88 -145 41z m95 -30 c11 -13 7 -15 -29 -15 -38 0 -50 8 -34
23 12 12 50 7 63 -8z"/>
<path d="M3638 1429 c-10 -5 -18 -21 -18 -35 0 -20 9 -29 48 -46 58 -25 60
-27 42 -38 -10 -6 -23 -4 -37 5 -49 33 -89 4 -41 -29 26 -18 90 -21 119 -6 21
12 26 52 7 67 -7 6 -30 16 -50 22 -21 7 -38 17 -38 22 0 12 37 12 45 -1 3 -5
17 -10 30 -10 18 0 22 4 18 21 -9 34 -85 52 -125 28z"/>
<path d="M4005 1428 c-21 -12 -35 -28 -35 -40 0 -12 38 -9 59 4 19 12 51 5 51
-10 0 -5 -18 -12 -40 -15 -49 -6 -70 -22 -70 -51 0 -31 19 -46 56 -46 23 0 38
8 52 25 24 31 29 31 28 3 -1 -18 5 -24 27 -26 22 -3 27 1 27 17 0 12 -4 21 -9
21 -5 0 -11 22 -15 50 -6 42 -11 52 -36 65 -34 18 -67 19 -95 3z m75 -92 c0
-14 -21 -26 -46 -26 -8 0 -14 6 -14 14 0 13 9 17 53 25 4 0 7 -5 7 -13z"/>
<path d="M4218 1425 c-32 -18 -45 -66 -29 -107 32 -84 175 -54 175 37 0 70
-77 107 -146 70z m86 -41 c9 -8 16 -22 16 -29 0 -19 -28 -45 -49 -45 -39 0
-57 60 -23 79 24 15 38 13 56 -5z"/>
</g>
</svg>
